<svg width="20" height="20" viewBox="0 0 20 20" fill="none" xmlns="http://www.w3.org/2000/svg">
<path d="M11.2419 7.91675H7.2915C6.94633 7.91675 6.6665 7.63692 6.6665 7.29175C6.6665 6.94657 6.94633 6.66675 7.2915 6.66675H12.7082C13.0533 6.66675 13.3332 6.94657 13.3332 7.29175V12.7084C13.3332 13.0536 13.0533 13.3334 12.7082 13.3334C12.363 13.3334 12.0832 13.0536 12.0832 12.7084V8.84291L7.73134 13.1526C7.48608 13.3954 7.09035 13.3935 6.84746 13.1482C6.60458 12.903 6.6065 12.5072 6.85177 12.2644L11.2419 7.91675ZM1.6665 10.0001C1.6665 14.6024 5.39746 18.3334 9.99984 18.3334C14.6022 18.3334 18.3332 14.6024 18.3332 10.0001C18.3332 5.39771 14.6022 1.66675 9.99984 1.66675C5.39746 1.66675 1.6665 5.39771 1.6665 10.0001ZM9.99984 17.0834C6.08782 17.0834 2.9165 13.9121 2.9165 10.0001C2.9165 6.08806 6.08782 2.91675 9.99984 2.91675C13.9118 2.91675 17.0832 6.08806 17.0832 10.0001C17.0832 13.9121 13.9118 17.0834 9.99984 17.0834Z" fill="white"/>
</svg>
