<svg width="24" height="24" viewBox="0 0 24 24" fill="none" xmlns="http://www.w3.org/2000/svg">
<path d="M12.9841 15C12.9841 15.2171 13.0548 15.4284 13.1854 15.6018C13.3161 15.7752 13.4997 15.9014 13.7084 15.9613C13.9171 16.0211 14.1397 16.0114 14.3424 15.9336C14.5451 15.8558 14.717 15.7141 14.8321 15.53L17.5201 12.843C17.6129 12.7501 17.6866 12.6398 17.7368 12.5184C17.787 12.3971 17.8128 12.267 17.8128 12.1356C17.8127 12.0043 17.7868 11.8742 17.7365 11.7529C17.6862 11.6316 17.6125 11.5213 17.5196 11.4285C17.4267 11.3357 17.3164 11.262 17.195 11.2118C17.0737 11.1616 16.9436 11.1358 16.8122 11.1358C16.6809 11.1358 16.5508 11.1618 16.4295 11.2121C16.3082 11.2624 16.1979 11.3361 16.1051 11.429L14.9851 12.549V5C14.9851 4.73478 14.8797 4.48043 14.6922 4.29289C14.5047 4.10536 14.2503 4 13.9851 4C13.7199 4 13.4655 4.10536 13.278 4.29289C13.0904 4.48043 12.9851 4.73478 12.9851 5L12.9841 15ZM11.0151 9C11.0151 8.78286 10.9444 8.57162 10.8137 8.3982C10.6831 8.22478 10.4995 8.09861 10.2908 8.03875C10.0821 7.97889 9.85951 7.98859 9.65679 8.06639C9.45407 8.14419 9.28218 8.28587 9.16709 8.47L6.48009 11.157C6.38458 11.2492 6.3084 11.3596 6.25599 11.4816C6.20358 11.6036 6.176 11.7348 6.17484 11.8676C6.17369 12.0004 6.19899 12.1321 6.24927 12.255C6.29955 12.3779 6.37381 12.4895 6.4677 12.5834C6.56159 12.6773 6.67324 12.7515 6.79614 12.8018C6.91904 12.8521 7.05071 12.8774 7.18349 12.8763C7.31627 12.8751 7.44749 12.8475 7.5695 12.7951C7.6915 12.7427 7.80185 12.6665 7.89409 12.571L9.01509 11.451V19C9.01509 19.2652 9.12045 19.5196 9.30799 19.7071C9.49552 19.8946 9.74988 20 10.0151 20C10.2803 20 10.5347 19.8946 10.7222 19.7071C10.9097 19.5196 11.0151 19.2652 11.0151 19V9Z" fill="#C8150C"/>
</svg>
