<svg width="15" height="23" viewBox="0 0 15 23" fill="none" xmlns="http://www.w3.org/2000/svg">
<path d="M9.64314 20.0716C9.64314 20.782 9.41737 21.4633 9.01551 21.9657C8.61364 22.468 8.0686 22.7502 7.50028 22.7502C6.93196 22.7502 6.38691 22.468 5.98505 21.9657C5.58319 21.4633 5.35742 20.782 5.35742 20.0716C5.35742 19.3612 5.58319 18.6799 5.98505 18.1776C6.38691 17.6753 6.93196 17.3931 7.50028 17.3931C8.0686 17.3931 8.61364 17.6753 9.01551 18.1776C9.41737 18.6799 9.64314 19.3612 9.64314 20.0716Z" fill="#7F8C8D"/>
<path d="M7.5 0.25C3.35786 0.25 0 3.67852 0 7.96423C0 11.2857 3.34821 14.2857 4.28571 16.3214C5.22321 18.25 4.28571 21.6786 4.28571 21.6786L7.5 21.1429L10.7143 21.6786C10.7143 21.6786 9.77679 18.25 10.7143 16.3214C11.6518 14.2857 15 11.2857 15 7.96423C15 3.67852 11.6421 0.25 7.5 0.25Z" fill="#F39C12"/>
<path d="M7.5 0.25C11.6421 0.25 15 3.67852 15 7.96423C15 11.2857 11.6518 14.2857 10.7143 16.3214C9.77679 18.25 10.7143 21.6786 10.7143 21.6786L7.5 21.1429V0.25Z" fill="#F1C40F"/>
<path d="M4.28578 6.67871L3.21436 7.75014L7.50007 20.6073L11.7858 7.75014L10.7144 6.67871L9.64293 7.75014L8.5715 6.67871L7.50007 7.75014L6.42864 6.67871L5.35721 7.75014L4.28578 6.67871ZM4.28578 7.75014L5.35721 8.82157L5.89293 8.28585L6.42864 7.75014L6.96436 8.28585L7.50007 8.82157L8.03578 8.28585L8.5715 7.75014L9.10721 8.28585L9.64293 8.82157L10.7144 7.75014L11.1836 8.17874L7.50007 19.2144L3.81703 8.17874L4.28578 7.75014Z" fill="#E67E22"/>
<path d="M4.28564 16.3213H10.7142V21.6784H4.28564V16.3213Z" fill="#BDC3C7"/>
<path d="M4.28564 16.3213V21.6784H7.49993V20.607H10.7142V19.5356H7.49993V18.4641H10.7142V17.3927H7.49993V16.3213H4.28564Z" fill="#95A5A6"/>
<path d="M4.28564 17.3931V18.4645H7.49993V17.3931H4.28564ZM4.28564 19.5359V20.6074H7.49993V19.5359H4.28564Z" fill="#7F8C8D"/>
</svg>
