<svg width="16" height="17" viewBox="0 0 16 17" fill="none" xmlns="http://www.w3.org/2000/svg">
<path d="M7.93956 9.83256L13.1689 9.83349C13.9973 9.83349 14.6689 10.505 14.6689 11.3335V11.9369C14.6689 12.666 14.3506 13.3588 13.7974 13.8337C12.7537 14.7297 11.2602 15.1676 9.3335 15.1676L9.21416 15.1668C9.36996 14.8531 9.37576 14.4839 9.2317 14.166L9.3335 14.1676C11.0402 14.1676 12.3054 13.7966 13.146 13.075C13.4779 12.79 13.6689 12.3744 13.6689 11.9369V11.3335C13.6689 11.0574 13.445 10.8335 13.1689 10.8335H7.98516C7.9951 10.7234 8.00016 10.6122 8.00016 10.5002C8.00016 10.2722 7.97936 10.0491 7.93956 9.83256ZM4.3335 7.50022C5.99035 7.50022 7.3335 8.84336 7.3335 10.5002C7.3335 11.2294 7.0733 11.8978 6.64076 12.4178L8.52196 14.294C8.7175 14.489 8.7179 14.8056 8.52283 15.001C8.34556 15.1788 8.06776 15.1952 7.8719 15.0502L7.81576 15.0019L5.88033 13.0712C5.42866 13.3435 4.89937 13.5002 4.3335 13.5002C2.67664 13.5002 1.3335 12.157 1.3335 10.5002C1.3335 8.84336 2.67664 7.50022 4.3335 7.50022ZM4.3335 8.50022C3.22893 8.50022 2.3335 9.39562 2.3335 10.5002C2.3335 11.6048 3.22893 12.5002 4.3335 12.5002C5.43806 12.5002 6.3335 11.6048 6.3335 10.5002C6.3335 9.39562 5.43806 8.50022 4.3335 8.50022ZM9.3335 1.83661C11.1744 1.83661 12.6668 3.329 12.6668 5.16994C12.6668 7.0109 11.1744 8.50329 9.3335 8.50329C7.49256 8.50329 6.00016 7.0109 6.00016 5.16994C6.00016 3.329 7.49256 1.83661 9.3335 1.83661ZM9.3335 2.83661C8.04483 2.83661 7.00016 3.88128 7.00016 5.16994C7.00016 6.45861 8.04483 7.50329 9.3335 7.50329C10.6222 7.50329 11.6668 6.45861 11.6668 5.16994C11.6668 3.88128 10.6222 2.83661 9.3335 2.83661Z" fill="#E95B0C"/>
</svg>
