<svg width="21" height="20" viewBox="0 0 21 20" fill="none" xmlns="http://www.w3.org/2000/svg">
<path d="M18.0002 6.6665C16.7918 6.6665 16.1168 7.8665 16.3918 8.75817L13.4335 11.7248C13.1835 11.6498 12.8168 11.6498 12.5668 11.7248L10.4418 9.59984C10.7252 8.70817 10.0502 7.49984 8.8335 7.49984C7.62516 7.49984 6.94183 8.69984 7.22516 9.59984L3.42516 13.3915C2.5335 13.1165 1.3335 13.7915 1.3335 14.9998C1.3335 15.9165 2.0835 16.6665 3.00016 16.6665C4.2085 16.6665 4.8835 15.4665 4.6085 14.5748L8.40016 10.7748C8.65016 10.8498 9.01683 10.8498 9.26683 10.7748L11.3918 12.8998C11.1085 13.7915 11.7835 14.9998 13.0002 14.9998C14.2085 14.9998 14.8918 13.7998 14.6085 12.8998L17.5752 9.9415C18.4668 10.2165 19.6668 9.5415 19.6668 8.33317C19.6668 7.4165 18.9168 6.6665 18.0002 6.6665Z" fill="#E95B0C"/>
<path d="M13.0002 7.5L13.7835 5.775L15.5002 5L13.7835 4.225L13.0002 2.5L12.2335 4.225L10.5002 5L12.2335 5.775L13.0002 7.5ZM3.41683 9.16667L3.8335 7.5L5.50016 7.08333L3.8335 6.66667L3.41683 5L3.00016 6.66667L1.3335 7.08333L3.00016 7.5L3.41683 9.16667Z" fill="#E95B0C"/>
</svg>
