<svg width="16" height="17" viewBox="0 0 16 17" fill="none" xmlns="http://www.w3.org/2000/svg">
<path d="M15 10.2L14.3 9.5L12.5 11.3L10.7 9.5L10 10.2L11.8 12L10 13.8L10.7 14.5L12.5 12.7L14.3 14.5L15 13.8L13.2 12L15 10.2Z" fill="black"/>
<path d="M8 13.5H6V9.5H8V8.5H6C5.45 8.5 5 8.95 5 9.5V13.5H3V3.5H5V5.5C5 6.05 5.45 6.5 6 6.5H10C10.55 6.5 11 6.05 11 5.5V3.7L13 5.7V8.5H14V5.5C14 5.35 13.95 5.25 13.85 5.15L11.35 2.65C11.25 2.55 11.15 2.5 11 2.5H3C2.45 2.5 2 2.95 2 3.5V13.5C2 14.05 2.45 14.5 3 14.5H8V13.5ZM6 3.5H10V5.5H6V3.5Z" fill="black"/>
</svg>
