<svg width="20" height="21" viewBox="0 0 20 21" fill="none" xmlns="http://www.w3.org/2000/svg">
<g clip-path="url(#clip0_1112_920)">
<path d="M13.3335 12.1666H14.5835V14.5166L16.6168 15.6916L15.9918 16.7749L13.3335 15.2416V12.1666ZM14.1668 10.4999C13.0618 10.4999 12.002 10.9389 11.2206 11.7203C10.4391 12.5017 10.0002 13.5615 10.0002 14.6666C10.0002 15.7717 10.4391 16.8315 11.2206 17.6129C12.002 18.3943 13.0618 18.8333 14.1668 18.8333C15.2719 18.8333 16.3317 18.3943 17.1131 17.6129C17.8945 16.8315 18.3335 15.7717 18.3335 14.6666C18.3335 13.5615 17.8945 12.5017 17.1131 11.7203C16.3317 10.9389 15.2719 10.4999 14.1668 10.4999ZM14.1668 8.83325C15.7139 8.83325 17.1977 9.44783 18.2916 10.5418C19.3856 11.6358 20.0002 13.1195 20.0002 14.6666C20.0002 16.2137 19.3856 17.6974 18.2916 18.7914C17.1977 19.8853 15.7139 20.4999 14.1668 20.4999C11.8418 20.4999 9.8335 19.1333 8.89183 17.1666H0.833496V14.6666C0.833496 12.4499 5.27516 11.3333 7.50016 11.3333C8.00016 11.3333 8.61683 11.3916 9.26683 11.4999C9.79528 10.681 10.5208 10.0077 11.3768 9.54185C12.2329 9.07596 13.1922 8.83232 14.1668 8.83325ZM8.3335 14.6666C8.3335 14.0833 8.41683 13.5166 8.57516 12.9999C8.22516 12.9416 7.8585 12.9166 7.50016 12.9166C5.02516 12.9166 2.41683 14.1333 2.41683 14.6666V15.5833H8.4085C8.35941 15.2801 8.33433 14.9736 8.3335 14.6666ZM7.50016 3.83325C8.38422 3.83325 9.23206 4.18444 9.85719 4.80956C10.4823 5.43468 10.8335 6.28253 10.8335 7.16659C10.8335 8.05064 10.4823 8.89849 9.85719 9.52361C9.23206 10.1487 8.38422 10.4999 7.50016 10.4999C6.61611 10.4999 5.76826 10.1487 5.14314 9.52361C4.51802 8.89849 4.16683 8.05064 4.16683 7.16659C4.16683 6.28253 4.51802 5.43468 5.14314 4.80956C5.76826 4.18444 6.61611 3.83325 7.50016 3.83325ZM7.50016 5.41659C7.03603 5.41659 6.59091 5.60096 6.26273 5.92915C5.93454 6.25734 5.75016 6.70246 5.75016 7.16659C5.75016 7.63071 5.93454 8.07583 6.26273 8.40402C6.59091 8.73221 7.03603 8.91659 7.50016 8.91659C7.96429 8.91659 8.40941 8.73221 8.7376 8.40402C9.06579 8.07583 9.25016 7.63071 9.25016 7.16659C9.25016 6.70246 9.06579 6.25734 8.7376 5.92915C8.40941 5.60096 7.96429 5.41659 7.50016 5.41659Z" fill="#E95B0C"/>
</g>
<defs>
<clipPath id="clip0_1112_920">
<rect width="20" height="20" fill="white" transform="translate(0 0.5)"/>
</clipPath>
</defs>
</svg>
