<svg width="16" height="17" viewBox="0 0 16 17" fill="none" xmlns="http://www.w3.org/2000/svg">
<path d="M7.6001 5.7001C7.6001 5.59401 7.55796 5.49227 7.48294 5.41726C7.40793 5.34224 7.30618 5.3001 7.2001 5.3001C7.09401 5.3001 6.99227 5.34224 6.91725 5.41726C6.84224 5.49227 6.8001 5.59401 6.8001 5.7001V7.3001H5.2001C5.09401 7.3001 4.99227 7.34224 4.91726 7.41725C4.84224 7.49227 4.8001 7.59401 4.8001 7.7001C4.8001 7.80618 4.84224 7.90793 4.91726 7.98294C4.99227 8.05796 5.09401 8.1001 5.2001 8.1001H6.8001V9.7001C6.8001 9.80618 6.84224 9.90793 6.91725 9.98294C6.99227 10.058 7.09401 10.1001 7.2001 10.1001C7.30618 10.1001 7.40793 10.058 7.48294 9.98294C7.55796 9.90793 7.6001 9.80618 7.6001 9.7001V8.1001H9.2001C9.30618 8.1001 9.40793 8.05796 9.48294 7.98294C9.55796 7.90793 9.6001 7.80618 9.6001 7.7001C9.6001 7.59401 9.55796 7.49227 9.48294 7.41725C9.40793 7.34224 9.30618 7.3001 9.2001 7.3001H7.6001V5.7001ZM3.6001 2.1001C3.06966 2.1001 2.56096 2.31081 2.18588 2.68588C1.81081 3.06096 1.6001 3.56966 1.6001 4.1001V11.3001C1.6001 11.8305 1.81081 12.3392 2.18588 12.7143C2.56096 13.0894 3.06966 13.3001 3.6001 13.3001H10.8001C11.3305 13.3001 11.8392 13.0894 12.2143 12.7143C12.5894 12.3392 12.8001 11.8305 12.8001 11.3001V4.1001C12.8001 3.56966 12.5894 3.06096 12.2143 2.68588C11.8392 2.31081 11.3305 2.1001 10.8001 2.1001H3.6001ZM2.4001 4.1001C2.4001 3.78184 2.52653 3.47661 2.75157 3.25157C2.97661 3.02653 3.28184 2.9001 3.6001 2.9001H10.8001C11.1184 2.9001 11.4236 3.02653 11.6486 3.25157C11.8737 3.47661 12.0001 3.78184 12.0001 4.1001V11.3001C12.0001 11.6184 11.8737 11.9236 11.6486 12.1486C11.4236 12.3737 11.1184 12.5001 10.8001 12.5001H3.6001C3.28184 12.5001 2.97661 12.3737 2.75157 12.1486C2.52653 11.9236 2.4001 11.6184 2.4001 11.3001V4.1001ZM6.0001 14.9001C5.26725 14.9002 4.56356 14.613 4.0401 14.1001H11.6001C12.1305 14.1001 12.6392 13.8894 13.0143 13.5143C13.3894 13.1392 13.6001 12.6305 13.6001 12.1001V4.5401C14.0953 5.0457 14.4001 5.7369 14.4001 6.5001V12.1001C14.4001 12.8427 14.1051 13.5549 13.58 14.08C13.0549 14.6051 12.3427 14.9001 11.6001 14.9001H6.0001Z" fill="black"/>
</svg>
