<svg width="16" height="16" viewBox="0 0 16 16" fill="none" xmlns="http://www.w3.org/2000/svg">
<path d="M8.20515 2.0061C8.13293 2.0061 8.06156 2.02174 7.99596 2.05195C7.93036 2.08216 7.87209 2.12622 7.82515 2.1811L7.77515 2.2171C6.27015 1.7751 4.56315 2.1171 3.37215 3.2441C2.31515 4.2431 1.91115 5.6251 2.15915 6.9181L2.14415 6.9321L1.47315 7.5671C1.33643 7.69324 1.22733 7.84632 1.1527 8.01671C1.07808 8.1871 1.03955 8.37109 1.03955 8.5571C1.03955 8.74312 1.07808 8.92711 1.1527 9.0975C1.22733 9.26788 1.33643 9.42097 1.47315 9.5471C1.81515 9.8721 2.28515 10.0041 2.73015 9.9431C2.79415 10.1761 2.92315 10.3971 3.11615 10.5801C3.37715 10.8271 3.71215 10.9621 4.05415 10.9861C4.07915 11.3091 4.22215 11.6261 4.48415 11.8731C4.74415 12.1201 5.07915 12.2551 5.42115 12.2791C5.44615 12.6021 5.58915 12.9191 5.85115 13.1661C6.11196 13.4071 6.44786 13.551 6.80229 13.5734C7.15672 13.5958 7.50805 13.4954 7.79715 13.2891L8.12715 13.6011C8.70715 14.1511 9.65015 14.1511 10.2311 13.6011C10.4911 13.3541 10.6351 13.0401 10.6611 12.7181C11.0011 12.6931 11.3331 12.5581 11.5931 12.3121C11.8531 12.0661 11.9971 11.7511 12.0231 11.4291C12.3581 11.4021 12.6851 11.2671 12.9431 11.0241C13.1441 10.8331 13.2761 10.6001 13.3361 10.3551C13.7761 10.4081 14.2351 10.2751 14.5721 9.9571C14.7089 9.83097 14.818 9.67788 14.8926 9.5075C14.9672 9.33711 15.0057 9.15312 15.0057 8.9671C15.0057 8.78109 14.9672 8.5971 14.8926 8.42671C14.818 8.25632 14.7089 8.10324 14.5721 7.9771L13.9781 7.4151L14.0911 6.9951C14.3537 6.02209 14.221 4.98476 13.7221 4.1091C12.9871 2.8071 11.5641 2.0091 10.0321 2.0091H9.01314L8.87515 2.0061H8.20515ZM12.5771 7.4631L13.0631 7.9431C13.0935 7.97261 13.1274 7.99814 13.1641 8.0191L13.8451 8.6631C13.8873 8.70153 13.921 8.74832 13.944 8.80049C13.967 8.85267 13.9789 8.90907 13.9789 8.9661C13.9789 9.02314 13.967 9.07954 13.944 9.13172C13.921 9.18389 13.8873 9.23068 13.8451 9.2691C13.7582 9.34994 13.6439 9.39487 13.5251 9.39487C13.4064 9.39487 13.2921 9.34994 13.2051 9.2691L12.0651 8.1921C11.9663 8.10081 11.8367 8.05011 11.7021 8.05011C11.5676 8.05011 11.438 8.10081 11.3391 8.1921L11.3271 8.2021C11.2799 8.24609 11.2422 8.29933 11.2165 8.35851C11.1907 8.4177 11.1774 8.48155 11.1774 8.5461C11.1774 8.61065 11.1907 8.67451 11.2165 8.73369C11.2422 8.79288 11.2799 8.84612 11.3271 8.8901L12.2161 9.7301C12.2579 9.76877 12.2912 9.81564 12.314 9.86778C12.3367 9.91992 12.3485 9.97621 12.3485 10.0331C12.3485 10.09 12.3367 10.1463 12.314 10.1984C12.2912 10.2506 12.2579 10.2974 12.2161 10.3361C12.137 10.4101 12.0348 10.4544 11.9268 10.4617C11.8187 10.469 11.7115 10.4388 11.6231 10.3761C11.5225 10.305 11.4004 10.2708 11.2775 10.2791C11.1545 10.2875 11.0382 10.338 10.9481 10.4221C10.861 10.5032 10.8082 10.6145 10.8004 10.7333C10.7926 10.852 10.8304 10.9693 10.9061 11.0611C10.9731 11.1423 11.0064 11.2461 10.9989 11.3511C10.9915 11.4561 10.9439 11.5542 10.8661 11.6251C10.786 11.7001 10.6821 11.7446 10.5725 11.751C10.4629 11.7574 10.3545 11.7253 10.2661 11.6601C10.1662 11.5868 10.0438 11.5504 9.92003 11.5571C9.79622 11.5639 9.67858 11.6134 9.58715 11.6971C9.4986 11.7781 9.44464 11.8901 9.43645 12.0098C9.42825 12.1295 9.46646 12.2478 9.54315 12.3401C9.68315 12.5101 9.67015 12.7571 9.50415 12.9141C9.41554 12.9956 9.29954 13.0409 9.17915 13.0409C9.05875 13.0409 8.94275 12.9956 8.85415 12.9141L8.53215 12.6101L8.61615 12.5311C8.75286 12.405 8.86196 12.2519 8.93659 12.0815C9.01121 11.9111 9.04974 11.7271 9.04974 11.5411C9.04974 11.3551 9.01121 11.1711 8.93659 11.0007C8.86196 10.8303 8.75286 10.6772 8.61615 10.5511C8.36065 10.3101 8.0287 10.1665 7.67815 10.1451C7.65078 9.80607 7.49736 9.4896 7.24815 9.2581C6.99305 9.01698 6.66148 8.87296 6.31115 8.8511C6.28378 8.51207 6.13036 8.1956 5.88115 7.9641C5.71437 7.8086 5.51495 7.69234 5.29747 7.62382C5.07998 7.55531 4.84993 7.53627 4.62415 7.5681C4.55519 7.32517 4.42182 7.10541 4.23815 6.9321C4.09089 6.79401 3.9176 6.68663 3.7284 6.61623C3.53919 6.54584 3.33785 6.51384 3.13615 6.5221C3.08278 6.04509 3.14201 5.5622 3.30908 5.11222C3.47615 4.66225 3.74641 4.25771 4.09815 3.9311C4.44268 3.60969 4.84924 3.36203 5.29288 3.20332C5.73653 3.0446 6.20792 2.97817 6.67815 3.0081L5.58315 3.7981C5.41511 3.9174 5.27338 4.06996 5.16675 4.24631C5.06013 4.42267 4.99088 4.61905 4.96332 4.82328C4.93575 5.02751 4.95044 5.23522 5.00649 5.43353C5.06254 5.63184 5.15875 5.81652 5.28915 5.9761C5.55217 6.29829 5.92778 6.50851 6.33994 6.56421C6.75211 6.6199 7.17004 6.51692 7.50915 6.2761L8.85615 5.3061H10.2961L12.5771 7.4631ZM6.16815 4.6081L8.39115 3.0061H8.87615L9.00115 3.0091H10.0311C11.2231 3.0091 12.3031 3.6291 12.8511 4.6011C13.2041 5.2241 13.3091 5.9411 13.1531 6.6271L10.9401 4.4491C10.8467 4.35746 10.721 4.30612 10.5901 4.3061H8.69315C8.58837 4.30607 8.48623 4.33895 8.40115 4.4001L6.92515 5.4651C6.79367 5.55646 6.63274 5.59523 6.47409 5.57375C6.31544 5.55228 6.1706 5.47212 6.06815 5.3491C6.02299 5.29524 5.98957 5.23255 5.97003 5.16503C5.95049 5.09752 5.94526 5.02667 5.95467 4.95701C5.96408 4.88736 5.98793 4.82044 6.02469 4.76053C6.06145 4.70062 6.11031 4.64905 6.16815 4.6091M7.25015 11.2381C7.33723 11.1574 7.45162 11.1127 7.57034 11.1128C7.68906 11.113 7.80332 11.1581 7.89015 11.2391C7.93229 11.2775 7.96596 11.3243 7.989 11.3765C8.01204 11.4287 8.02394 11.4851 8.02394 11.5421C8.02394 11.5991 8.01204 11.6555 7.989 11.7077C7.96596 11.7599 7.93229 11.8067 7.89015 11.8451L7.21815 12.4801C7.13119 12.5609 7.01687 12.6059 6.89815 12.6059C6.77942 12.6059 6.6651 12.5609 6.57815 12.4801C6.536 12.4417 6.50233 12.3949 6.47929 12.3427C6.45625 12.2905 6.44435 12.2341 6.44435 12.1771C6.44435 12.1201 6.45625 12.0637 6.47929 12.0115C6.50233 11.9593 6.536 11.9125 6.57815 11.8741L7.25015 11.2381ZM6.52415 10.5501L5.85115 11.1871C5.76414 11.2682 5.6496 11.3133 5.53065 11.3133C5.41169 11.3133 5.29716 11.2682 5.21015 11.1871C5.16894 11.1495 5.13585 11.1038 5.11291 11.0529C5.08997 11.0021 5.07765 10.9471 5.07671 10.8913C5.07578 10.8355 5.08624 10.7801 5.10747 10.7284C5.12869 10.6768 5.16023 10.6301 5.20015 10.5911L5.21015 10.5811L5.88115 9.9461L5.89115 9.9361C5.97882 9.85918 6.09196 9.8176 6.20857 9.81945C6.32519 9.8213 6.43696 9.86644 6.52215 9.9461C6.5641 9.98437 6.59765 10.0309 6.62066 10.0828C6.64368 10.1348 6.65566 10.1909 6.65585 10.2477C6.65603 10.3044 6.64442 10.3607 6.62175 10.4127C6.59908 10.4648 6.56584 10.5116 6.52415 10.5501ZM5.15415 9.2591L4.48415 9.8931L4.47315 9.9031C4.38554 9.97975 4.27261 10.0212 4.15622 10.0193C4.03984 10.0175 3.92828 9.97249 3.84315 9.8931C3.801 9.85468 3.76733 9.80789 3.74429 9.75572C3.72125 9.70354 3.70935 9.64714 3.70935 9.5901C3.70935 9.53307 3.72125 9.47666 3.74429 9.42449C3.76733 9.37232 3.801 9.32553 3.84315 9.2871L4.51315 8.6531C4.60021 8.5717 4.71495 8.52641 4.83415 8.52641C4.95334 8.52641 5.06808 8.5717 5.15515 8.6531C5.19635 8.69074 5.22944 8.73639 5.25238 8.78726C5.27532 8.83813 5.28764 8.89315 5.28858 8.94895C5.28951 9.00475 5.27905 9.06015 5.25782 9.11176C5.2366 9.16337 5.20506 9.21011 5.16515 9.2491L5.15415 9.2591ZM3.51215 8.2251L2.84115 8.8601C2.75419 8.94094 2.63987 8.98587 2.52115 8.98587C2.40242 8.98587 2.2881 8.94094 2.20115 8.8601C2.159 8.82168 2.12533 8.77489 2.10229 8.72272C2.07925 8.67054 2.06735 8.61414 2.06735 8.5571C2.06735 8.50007 2.07925 8.44366 2.10229 8.39149C2.12533 8.33932 2.159 8.29253 2.20115 8.2541L2.87115 7.6191C2.95816 7.53798 3.07269 7.49288 3.19165 7.49288C3.3106 7.49288 3.42514 7.53798 3.51215 7.6191C3.55429 7.65753 3.58796 7.70432 3.611 7.75649C3.63404 7.80866 3.64594 7.86507 3.64594 7.9221C3.64594 7.97914 3.63404 8.03554 3.611 8.08772C3.58796 8.13989 3.55429 8.18668 3.51215 8.2251Z" fill="#E95B0C"/>
</svg>
